<?xml version="1.0" encoding="utf-8" standalone="no"?>
<!DOCTYPE svg PUBLIC "-//W3C//DTD SVG 1.1//EN"
  "http://www.w3.org/Graphics/SVG/1.1/DTD/svg11.dtd">
<svg height="558pt" version="1.1" viewBox="0 0 558 558" width="558pt" xmlns="http://www.w3.org/2000/svg" xmlns:xlink="http://www.w3.org/1999/xlink">
 <metadata>
  <rdf:RDF xmlns:cc="http://creativecommons.org/ns#" xmlns:dc="http://purl.org/dc/elements/1.1/" xmlns:rdf="http://www.w3.org/1999/02/22-rdf-syntax-ns#">
   <cc:Work>
    <dc:type rdf:resource="http://purl.org/dc/dcmitype/StillImage"/>
    <dc:date>2022-03-08T20:45:38.315305</dc:date>
    <dc:format>image/svg+xml</dc:format>
    <dc:creator>
     <cc:Agent>
      <dc:title>Matplotlib v3.4.2, https://matplotlib.org/</dc:title>
     </cc:Agent>
    </dc:creator>
   </cc:Work>
  </rdf:RDF>
 </metadata>
 <defs>
  <style type="text/css">*{stroke-linecap:butt;stroke-linejoin:round;}</style>
 </defs>
 <g id="figure_1">
  <g id="patch_1">
   <path d="M 0 558 
L 558 558 
L 558 0 
L 0 0 
z
" style="fill:#ffffff;"/>
  </g>
  <g id="axes_1">
   <g id="patch_2">
    <path clip-path="url(#pbc43257e16)" d="M 269.802597 101.793792 
C 225.442852 103.847563 183.467498 122.632949 152.380456 154.344157 
C 121.293414 186.055366 103.346063 228.395815 102.174415 272.787618 
C 101.002766 317.179421 116.691673 360.407644 146.062669 393.714543 
C 175.433665 427.021441 216.35965 447.994871 260.549299 452.385758 
C 259.959372 452.148095 259.370958 451.906691 258.784095 451.661559 
C 258.197232 451.416428 257.611931 451.167574 257.028227 450.915013 
C 216.005168 442.476347 179.275749 419.754751 153.409882 386.814512 
C 127.544016 353.874273 114.181724 312.803964 115.713165 270.949967 
C 117.244605 229.095969 133.572678 189.112033 161.776725 158.150216 
C 189.980773 127.188399 228.272521 107.211833 269.802597 101.793792 
" style="fill:#ff0000;opacity:0.4;"/>
   </g>
   <g id="patch_3">
    <path clip-path="url(#pbc43257e16)" d="M 269.802597 101.793792 
C 312.127177 99.834246 353.766028 113.238528 386.998891 139.521351 
C 420.231753 165.804174 442.869427 203.234167 450.714659 244.871438 
C 455.76651 254.812477 459.69645 265.284895 462.431873 276.09521 
C 465.167296 286.905525 466.69125 297.98675 466.975581 309.134153 
C 471.96723 281.700904 470.410935 253.472701 462.433773 226.754456 
C 454.45661 200.036211 440.281774 175.575477 421.066679 155.369541 
C 401.851584 135.163604 378.133852 119.77781 351.8501 110.468452 
C 325.566349 101.159093 297.451976 98.186636 269.802597 101.793792 
" style="fill:#008000;opacity:0.4;"/>
   </g>
   <g id="patch_4">
    <path clip-path="url(#pbc43257e16)" d="M 269.802597 101.793792 
C 228.272521 107.211833 189.980773 127.188399 161.776725 158.150216 
C 133.572678 189.112033 117.244605 229.095969 115.713165 270.949967 
C 114.181724 312.803964 127.544016 353.874273 153.409882 386.814512 
C 179.275749 419.754751 216.005168 442.476347 257.028227 450.915013 
C 234.886935 441.334765 215.374168 426.563192 200.144535 407.852868 
C 184.914902 389.142544 174.411397 367.037707 169.524677 343.412764 
C 164.637958 319.787821 165.510167 295.329966 172.067345 272.113132 
C 178.624522 248.896298 190.675936 227.595808 207.199671 210.017864 
C 223.723405 192.439919 244.238826 179.09582 267.006301 171.117096 
C 289.773776 163.138373 314.131054 160.757106 338.01273 164.175219 
C 361.894406 167.593332 384.605819 176.7114 404.221126 190.756245 
C 423.836434 204.80109 439.785073 223.364181 450.714659 244.871438 
C 442.869427 203.234167 420.231753 165.804174 386.998891 139.521351 
C 353.766028 113.238528 312.127177 99.834246 269.802597 101.793792 
" style="fill:#b25a00;opacity:0.4;"/>
   </g>
   <g id="patch_5">
    <path clip-path="url(#pbc43257e16)" d="M 260.549299 452.385758 
C 283.661643 461.696962 308.730676 465.116456 333.492438 462.335431 
C 358.254199 459.554405 381.94015 450.659175 402.411233 436.45306 
C 422.882316 422.246945 439.503163 403.170866 450.772762 380.947565 
C 462.04236 358.724264 467.610931 334.043494 466.975581 309.134153 
C 458.844691 353.820139 433.828938 393.710124 397.143047 420.488738 
C 360.457157 447.267351 314.840636 458.934908 269.802597 453.059216 
C 268.257754 452.987693 266.713923 452.89579 265.171505 452.783533 
C 263.629087 452.671275 262.088218 452.538672 260.549299 452.385758 
" style="fill:#0000ff;opacity:0.4;"/>
   </g>
   <g id="patch_6">
    <path clip-path="url(#pbc43257e16)" d="M 260.549299 452.385758 
C 262.088218 452.538672 263.629087 452.671275 265.171505 452.783533 
C 266.713923 452.89579 268.257754 452.987693 269.802597 453.059216 
C 267.661355 452.779868 265.5254 452.461386 263.395804 452.103929 
C 261.266208 451.746472 259.143328 451.350101 257.028227 450.915013 
C 257.611931 451.167574 258.197232 451.416428 258.784095 451.661559 
C 259.370958 451.906691 259.959372 452.148095 260.549299 452.385758 
" style="fill:#b200b2;opacity:0.4;"/>
   </g>
   <g id="patch_7">
    <path clip-path="url(#pbc43257e16)" d="M 450.714659 244.871438 
C 455.627483 270.945431 454.575005 297.796418 447.636346 323.405869 
C 440.697688 349.015319 428.051189 372.725007 410.647555 392.75255 
C 393.24392 412.780092 371.530466 428.610731 347.139508 439.054395 
C 322.74855 449.498059 296.306996 454.286319 269.802597 453.059216 
C 314.840636 458.934908 360.457157 447.267351 397.143047 420.488738 
C 433.828938 393.710124 458.844691 353.820139 466.975581 309.134153 
C 466.69125 297.98675 465.167296 286.905525 462.431873 276.09521 
C 459.69645 265.284895 455.76651 254.812477 450.714659 244.871438 
" style="fill:#005ab2;opacity:0.4;"/>
   </g>
   <g id="patch_8">
    <path clip-path="url(#pbc43257e16)" d="M 257.028227 450.915013 
C 259.143328 451.350101 261.266208 451.746472 263.395804 452.103929 
C 265.5254 452.461386 267.661355 452.779868 269.802597 453.059216 
C 296.306996 454.286319 322.74855 449.498059 347.139508 439.054395 
C 371.530466 428.610731 393.24392 412.780092 410.647555 392.75255 
C 428.051189 372.725007 440.697688 349.015319 447.636346 323.405869 
C 454.575005 297.796418 455.627483 270.945431 450.714659 244.871438 
C 439.785073 223.364181 423.836434 204.80109 404.221126 190.756245 
C 384.605819 176.7114 361.894406 167.593332 338.01273 164.175219 
C 314.131054 160.757106 289.773776 163.138373 267.006301 171.117096 
C 244.238826 179.09582 223.723405 192.439919 207.199671 210.017864 
C 190.675936 227.595808 178.624522 248.896298 172.067345 272.113132 
C 165.510167 295.329966 164.637958 319.787821 169.524677 343.412764 
C 174.411397 367.037707 184.914902 389.142544 200.144535 407.852868 
C 215.374168 426.563192 234.886935 441.334765 257.028227 450.915013 
" style="opacity:0.4;stroke:#000000;stroke-linejoin:miter;"/>
   </g>
   <g id="patch_9">
    <path clip-path="url(#pbc43257e16)" d="M 277.934054 453.247351 
C 324.562287 453.247351 369.287026 434.721757 402.258167 401.750617 
C 435.229307 368.779477 453.7549 324.054738 453.7549 277.426504 
C 453.7549 230.798271 435.229307 186.073531 402.258167 153.102391 
C 369.287026 120.131251 324.562287 101.605658 277.934054 101.605658 
C 231.30582 101.605658 186.581081 120.131251 153.609941 153.102391 
C 120.638801 186.073531 102.113207 230.798271 102.113207 277.426504 
C 102.113207 324.054738 120.638801 368.779477 153.609941 401.750617 
C 186.581081 434.721757 231.30582 453.247351 277.934054 453.247351 
z
" style="fill:none;stroke:#000000;stroke-linejoin:miter;"/>
   </g>
   <g id="patch_10">
    <path clip-path="url(#pbc43257e16)" d="M 292.715754 454.547543 
C 339.688803 454.547543 384.744281 435.884953 417.959242 402.669992 
C 451.174203 369.45503 469.836793 324.399553 469.836793 277.426504 
C 469.836793 230.453456 451.174203 185.397978 417.959242 152.183017 
C 384.744281 118.968056 339.688803 100.305466 292.715754 100.305466 
C 245.742706 100.305466 200.687228 118.968056 167.472267 152.183017 
C 134.257306 185.397978 115.594716 230.453456 115.594716 277.426504 
C 115.594716 324.399553 134.257306 369.45503 167.472267 402.669992 
C 200.687228 435.884953 245.742706 454.547543 292.715754 454.547543 
z
" style="fill:none;stroke:#000000;stroke-linejoin:miter;"/>
   </g>
   <g id="patch_11">
    <path clip-path="url(#pbc43257e16)" d="M 316.716645 463.274534 
C 356.578741 463.274534 394.813555 447.437156 423.000314 419.250397 
C 451.187072 391.063639 467.024451 352.828825 467.024451 312.966728 
C 467.024451 273.104632 451.187072 234.869818 423.000314 206.68306 
C 394.813555 178.496301 356.578741 162.658923 316.716645 162.658923 
C 276.854549 162.658923 238.619735 178.496301 210.432977 206.68306 
C 182.246218 234.869818 166.408839 273.104632 166.408839 312.966728 
C 166.408839 352.828825 182.246218 391.063639 210.432977 419.250397 
C 238.619735 447.437156 276.854549 463.274534 316.716645 463.274534 
z
" style="fill:none;stroke:#000000;stroke-linejoin:miter;"/>
   </g>
   <g id="text_1">
    <!-- DE -->
    <g transform="translate(173.201131 101.605658)scale(0.12 -0.12)">
     <defs>
      <path d="M 1259 4147 
L 1259 519 
L 2022 519 
Q 2988 519 3436 956 
Q 3884 1394 3884 2338 
Q 3884 3275 3436 3711 
Q 2988 4147 2022 4147 
L 1259 4147 
z
M 628 4666 
L 1925 4666 
Q 3281 4666 3915 4102 
Q 4550 3538 4550 2338 
Q 4550 1131 3912 565 
Q 3275 0 1925 0 
L 628 0 
L 628 4666 
z
" id="DejaVuSans-44" transform="scale(0.015625)"/>
      <path d="M 628 4666 
L 3578 4666 
L 3578 4134 
L 1259 4134 
L 1259 2753 
L 3481 2753 
L 3481 2222 
L 1259 2222 
L 1259 531 
L 3634 531 
L 3634 0 
L 628 0 
L 628 4666 
z
" id="DejaVuSans-45" transform="scale(0.015625)"/>
     </defs>
     <use xlink:href="#DejaVuSans-44"/>
     <use x="77.001953" xlink:href="#DejaVuSans-45"/>
    </g>
   </g>
   <g id="text_2">
    <!-- CS -->
    <g transform="translate(381.276274 100.305466)scale(0.12 -0.12)">
     <defs>
      <path d="M 4122 4306 
L 4122 3641 
Q 3803 3938 3442 4084 
Q 3081 4231 2675 4231 
Q 1875 4231 1450 3742 
Q 1025 3253 1025 2328 
Q 1025 1406 1450 917 
Q 1875 428 2675 428 
Q 3081 428 3442 575 
Q 3803 722 4122 1019 
L 4122 359 
Q 3791 134 3420 21 
Q 3050 -91 2638 -91 
Q 1578 -91 968 557 
Q 359 1206 359 2328 
Q 359 3453 968 4101 
Q 1578 4750 2638 4750 
Q 3056 4750 3426 4639 
Q 3797 4528 4122 4306 
z
" id="DejaVuSans-43" transform="scale(0.015625)"/>
      <path d="M 3425 4513 
L 3425 3897 
Q 3066 4069 2747 4153 
Q 2428 4238 2131 4238 
Q 1616 4238 1336 4038 
Q 1056 3838 1056 3469 
Q 1056 3159 1242 3001 
Q 1428 2844 1947 2747 
L 2328 2669 
Q 3034 2534 3370 2195 
Q 3706 1856 3706 1288 
Q 3706 609 3251 259 
Q 2797 -91 1919 -91 
Q 1588 -91 1214 -16 
Q 841 59 441 206 
L 441 856 
Q 825 641 1194 531 
Q 1563 422 1919 422 
Q 2459 422 2753 634 
Q 3047 847 3047 1241 
Q 3047 1584 2836 1778 
Q 2625 1972 2144 2069 
L 1759 2144 
Q 1053 2284 737 2584 
Q 422 2884 422 3419 
Q 422 4038 858 4394 
Q 1294 4750 2059 4750 
Q 2388 4750 2728 4690 
Q 3069 4631 3425 4513 
z
" id="DejaVuSans-53" transform="scale(0.015625)"/>
     </defs>
     <use xlink:href="#DejaVuSans-43"/>
     <use x="69.824219" xlink:href="#DejaVuSans-53"/>
    </g>
   </g>
   <g id="text_3">
    <!-- PMD -->
    <g transform="translate(303.301958 487.42344)scale(0.12 -0.12)">
     <defs>
      <path d="M 1259 4147 
L 1259 2394 
L 2053 2394 
Q 2494 2394 2734 2622 
Q 2975 2850 2975 3272 
Q 2975 3691 2734 3919 
Q 2494 4147 2053 4147 
L 1259 4147 
z
M 628 4666 
L 2053 4666 
Q 2838 4666 3239 4311 
Q 3641 3956 3641 3272 
Q 3641 2581 3239 2228 
Q 2838 1875 2053 1875 
L 1259 1875 
L 1259 0 
L 628 0 
L 628 4666 
z
" id="DejaVuSans-50" transform="scale(0.015625)"/>
      <path d="M 628 4666 
L 1569 4666 
L 2759 1491 
L 3956 4666 
L 4897 4666 
L 4897 0 
L 4281 0 
L 4281 4097 
L 3078 897 
L 2444 897 
L 1241 4097 
L 1241 0 
L 628 0 
L 628 4666 
z
" id="DejaVuSans-4d" transform="scale(0.015625)"/>
     </defs>
     <use xlink:href="#DejaVuSans-50"/>
     <use x="60.302734" xlink:href="#DejaVuSans-4d"/>
     <use x="146.582031" xlink:href="#DejaVuSans-44"/>
    </g>
   </g>
   <g id="legend_1">
    <g id="patch_12">
     <path d="M 6.8825 495.637742 
L 114.027813 495.637742 
Q 116.027813 495.637742 116.027813 493.637742 
L 116.027813 377.212742 
Q 116.027813 375.212742 114.027813 375.212742 
L 6.8825 375.212742 
Q 4.8825 375.212742 4.8825 377.212742 
L 4.8825 493.637742 
Q 4.8825 495.637742 6.8825 495.637742 
z
" style="fill:#ffffff;opacity:0.8;stroke:#cccccc;stroke-linejoin:miter;"/>
    </g>
    <g id="text_4">
     <!-- Legende -->
     <g transform="translate(39.009844 386.811179)scale(0.1 -0.1)">
      <defs>
       <path d="M 628 4666 
L 1259 4666 
L 1259 531 
L 3531 531 
L 3531 0 
L 628 0 
L 628 4666 
z
" id="DejaVuSans-4c" transform="scale(0.015625)"/>
       <path d="M 3597 1894 
L 3597 1613 
L 953 1613 
Q 991 1019 1311 708 
Q 1631 397 2203 397 
Q 2534 397 2845 478 
Q 3156 559 3463 722 
L 3463 178 
Q 3153 47 2828 -22 
Q 2503 -91 2169 -91 
Q 1331 -91 842 396 
Q 353 884 353 1716 
Q 353 2575 817 3079 
Q 1281 3584 2069 3584 
Q 2775 3584 3186 3129 
Q 3597 2675 3597 1894 
z
M 3022 2063 
Q 3016 2534 2758 2815 
Q 2500 3097 2075 3097 
Q 1594 3097 1305 2825 
Q 1016 2553 972 2059 
L 3022 2063 
z
" id="DejaVuSans-65" transform="scale(0.015625)"/>
       <path d="M 2906 1791 
Q 2906 2416 2648 2759 
Q 2391 3103 1925 3103 
Q 1463 3103 1205 2759 
Q 947 2416 947 1791 
Q 947 1169 1205 825 
Q 1463 481 1925 481 
Q 2391 481 2648 825 
Q 2906 1169 2906 1791 
z
M 3481 434 
Q 3481 -459 3084 -895 
Q 2688 -1331 1869 -1331 
Q 1566 -1331 1297 -1286 
Q 1028 -1241 775 -1147 
L 775 -588 
Q 1028 -725 1275 -790 
Q 1522 -856 1778 -856 
Q 2344 -856 2625 -561 
Q 2906 -266 2906 331 
L 2906 616 
Q 2728 306 2450 153 
Q 2172 0 1784 0 
Q 1141 0 747 490 
Q 353 981 353 1791 
Q 353 2603 747 3093 
Q 1141 3584 1784 3584 
Q 2172 3584 2450 3431 
Q 2728 3278 2906 2969 
L 2906 3500 
L 3481 3500 
L 3481 434 
z
" id="DejaVuSans-67" transform="scale(0.015625)"/>
       <path d="M 3513 2113 
L 3513 0 
L 2938 0 
L 2938 2094 
Q 2938 2591 2744 2837 
Q 2550 3084 2163 3084 
Q 1697 3084 1428 2787 
Q 1159 2491 1159 1978 
L 1159 0 
L 581 0 
L 581 3500 
L 1159 3500 
L 1159 2956 
Q 1366 3272 1645 3428 
Q 1925 3584 2291 3584 
Q 2894 3584 3203 3211 
Q 3513 2838 3513 2113 
z
" id="DejaVuSans-6e" transform="scale(0.015625)"/>
       <path d="M 2906 2969 
L 2906 4863 
L 3481 4863 
L 3481 0 
L 2906 0 
L 2906 525 
Q 2725 213 2448 61 
Q 2172 -91 1784 -91 
Q 1150 -91 751 415 
Q 353 922 353 1747 
Q 353 2572 751 3078 
Q 1150 3584 1784 3584 
Q 2172 3584 2448 3432 
Q 2725 3281 2906 2969 
z
M 947 1747 
Q 947 1113 1208 752 
Q 1469 391 1925 391 
Q 2381 391 2643 752 
Q 2906 1113 2906 1747 
Q 2906 2381 2643 2742 
Q 2381 3103 1925 3103 
Q 1469 3103 1208 2742 
Q 947 2381 947 1747 
z
" id="DejaVuSans-64" transform="scale(0.015625)"/>
      </defs>
      <use xlink:href="#DejaVuSans-4c"/>
      <use x="53.962891" xlink:href="#DejaVuSans-65"/>
      <use x="115.486328" xlink:href="#DejaVuSans-67"/>
      <use x="178.962891" xlink:href="#DejaVuSans-65"/>
      <use x="240.486328" xlink:href="#DejaVuSans-6e"/>
      <use x="303.865234" xlink:href="#DejaVuSans-64"/>
      <use x="367.341797" xlink:href="#DejaVuSans-65"/>
     </g>
    </g>
    <g id="patch_13">
     <path d="M 8.8825 401.489304 
L 28.8825 401.489304 
L 28.8825 394.489304 
L 8.8825 394.489304 
z
" style="fill:#ff0000;opacity:0.4;"/>
    </g>
    <g id="text_5">
     <!-- {DE} -->
     <g transform="translate(36.8825 401.489304)scale(0.1 -0.1)">
      <defs>
       <path d="M 3272 -594 
L 3272 -1044 
L 3078 -1044 
Q 2300 -1044 2036 -812 
Q 1772 -581 1772 109 
L 1772 856 
Q 1772 1328 1603 1509 
Q 1434 1691 991 1691 
L 800 1691 
L 800 2138 
L 991 2138 
Q 1438 2138 1605 2317 
Q 1772 2497 1772 2963 
L 1772 3713 
Q 1772 4403 2036 4633 
Q 2300 4863 3078 4863 
L 3272 4863 
L 3272 4416 
L 3059 4416 
Q 2619 4416 2484 4278 
Q 2350 4141 2350 3700 
L 2350 2925 
Q 2350 2434 2208 2212 
Q 2066 1991 1722 1913 
Q 2069 1828 2209 1606 
Q 2350 1384 2350 897 
L 2350 122 
Q 2350 -319 2484 -456 
Q 2619 -594 3059 -594 
L 3272 -594 
z
" id="DejaVuSans-7b" transform="scale(0.015625)"/>
       <path d="M 800 -594 
L 1019 -594 
Q 1456 -594 1589 -459 
Q 1722 -325 1722 122 
L 1722 897 
Q 1722 1384 1862 1606 
Q 2003 1828 2350 1913 
Q 2003 1991 1862 2212 
Q 1722 2434 1722 2925 
L 1722 3700 
Q 1722 4144 1589 4280 
Q 1456 4416 1019 4416 
L 800 4416 
L 800 4863 
L 997 4863 
Q 1775 4863 2036 4633 
Q 2297 4403 2297 3713 
L 2297 2963 
Q 2297 2497 2465 2317 
Q 2634 2138 3078 2138 
L 3272 2138 
L 3272 1691 
L 3078 1691 
Q 2634 1691 2465 1509 
Q 2297 1328 2297 856 
L 2297 109 
Q 2297 -581 2036 -812 
Q 1775 -1044 997 -1044 
L 800 -1044 
L 800 -594 
z
" id="DejaVuSans-7d" transform="scale(0.015625)"/>
      </defs>
      <use xlink:href="#DejaVuSans-7b"/>
      <use x="63.623047" xlink:href="#DejaVuSans-44"/>
      <use x="140.625" xlink:href="#DejaVuSans-45"/>
      <use x="203.808594" xlink:href="#DejaVuSans-7d"/>
     </g>
    </g>
    <g id="patch_14">
     <path d="M 8.8825 416.167429 
L 28.8825 416.167429 
L 28.8825 409.167429 
L 8.8825 409.167429 
z
" style="fill:#008000;opacity:0.4;"/>
    </g>
    <g id="text_6">
     <!-- {CS} -->
     <g transform="translate(36.8825 416.167429)scale(0.1 -0.1)">
      <use xlink:href="#DejaVuSans-7b"/>
      <use x="63.623047" xlink:href="#DejaVuSans-43"/>
      <use x="133.447266" xlink:href="#DejaVuSans-53"/>
      <use x="196.923828" xlink:href="#DejaVuSans-7d"/>
     </g>
    </g>
    <g id="patch_15">
     <path d="M 8.8825 430.845554 
L 28.8825 430.845554 
L 28.8825 423.845554 
L 8.8825 423.845554 
z
" style="fill:#b25a00;opacity:0.4;"/>
    </g>
    <g id="text_7">
     <!-- {DE, CS} -->
     <g transform="translate(36.8825 430.845554)scale(0.1 -0.1)">
      <defs>
       <path d="M 750 794 
L 1409 794 
L 1409 256 
L 897 -744 
L 494 -744 
L 750 256 
L 750 794 
z
" id="DejaVuSans-2c" transform="scale(0.015625)"/>
       <path id="DejaVuSans-20" transform="scale(0.015625)"/>
      </defs>
      <use xlink:href="#DejaVuSans-7b"/>
      <use x="63.623047" xlink:href="#DejaVuSans-44"/>
      <use x="140.625" xlink:href="#DejaVuSans-45"/>
      <use x="203.808594" xlink:href="#DejaVuSans-2c"/>
      <use x="235.595703" xlink:href="#DejaVuSans-20"/>
      <use x="267.382812" xlink:href="#DejaVuSans-43"/>
      <use x="337.207031" xlink:href="#DejaVuSans-53"/>
      <use x="400.683594" xlink:href="#DejaVuSans-7d"/>
     </g>
    </g>
    <g id="patch_16">
     <path d="M 8.8825 445.523679 
L 28.8825 445.523679 
L 28.8825 438.523679 
L 8.8825 438.523679 
z
" style="fill:#0000ff;opacity:0.4;"/>
    </g>
    <g id="text_8">
     <!-- {PMD} -->
     <g transform="translate(36.8825 445.523679)scale(0.1 -0.1)">
      <use xlink:href="#DejaVuSans-7b"/>
      <use x="63.623047" xlink:href="#DejaVuSans-50"/>
      <use x="123.925781" xlink:href="#DejaVuSans-4d"/>
      <use x="210.205078" xlink:href="#DejaVuSans-44"/>
      <use x="287.207031" xlink:href="#DejaVuSans-7d"/>
     </g>
    </g>
    <g id="patch_17">
     <path d="M 8.8825 460.201804 
L 28.8825 460.201804 
L 28.8825 453.201804 
L 8.8825 453.201804 
z
" style="fill:#b200b2;opacity:0.4;"/>
    </g>
    <g id="text_9">
     <!-- {DE, PMD} -->
     <g transform="translate(36.8825 460.201804)scale(0.1 -0.1)">
      <use xlink:href="#DejaVuSans-7b"/>
      <use x="63.623047" xlink:href="#DejaVuSans-44"/>
      <use x="140.625" xlink:href="#DejaVuSans-45"/>
      <use x="203.808594" xlink:href="#DejaVuSans-2c"/>
      <use x="235.595703" xlink:href="#DejaVuSans-20"/>
      <use x="267.382812" xlink:href="#DejaVuSans-50"/>
      <use x="327.685547" xlink:href="#DejaVuSans-4d"/>
      <use x="413.964844" xlink:href="#DejaVuSans-44"/>
      <use x="490.966797" xlink:href="#DejaVuSans-7d"/>
     </g>
    </g>
    <g id="patch_18">
     <path d="M 8.8825 474.879929 
L 28.8825 474.879929 
L 28.8825 467.879929 
L 8.8825 467.879929 
z
" style="fill:#005ab2;opacity:0.4;"/>
    </g>
    <g id="text_10">
     <!-- {CS, PMD} -->
     <g transform="translate(36.8825 474.879929)scale(0.1 -0.1)">
      <use xlink:href="#DejaVuSans-7b"/>
      <use x="63.623047" xlink:href="#DejaVuSans-43"/>
      <use x="133.447266" xlink:href="#DejaVuSans-53"/>
      <use x="196.923828" xlink:href="#DejaVuSans-2c"/>
      <use x="228.710938" xlink:href="#DejaVuSans-20"/>
      <use x="260.498047" xlink:href="#DejaVuSans-50"/>
      <use x="320.800781" xlink:href="#DejaVuSans-4d"/>
      <use x="407.080078" xlink:href="#DejaVuSans-44"/>
      <use x="484.082031" xlink:href="#DejaVuSans-7d"/>
     </g>
    </g>
    <g id="patch_19">
     <path d="M 8.8825 489.558054 
L 28.8825 489.558054 
L 28.8825 482.558054 
L 8.8825 482.558054 
z
" style="opacity:0.4;stroke:#000000;stroke-linejoin:miter;"/>
    </g>
    <g id="text_11">
     <!-- {DE, CS, PMD} -->
     <g transform="translate(36.8825 489.558054)scale(0.1 -0.1)">
      <use xlink:href="#DejaVuSans-7b"/>
      <use x="63.623047" xlink:href="#DejaVuSans-44"/>
      <use x="140.625" xlink:href="#DejaVuSans-45"/>
      <use x="203.808594" xlink:href="#DejaVuSans-2c"/>
      <use x="235.595703" xlink:href="#DejaVuSans-20"/>
      <use x="267.382812" xlink:href="#DejaVuSans-43"/>
      <use x="337.207031" xlink:href="#DejaVuSans-53"/>
      <use x="400.683594" xlink:href="#DejaVuSans-2c"/>
      <use x="432.470703" xlink:href="#DejaVuSans-20"/>
      <use x="464.257812" xlink:href="#DejaVuSans-50"/>
      <use x="524.560547" xlink:href="#DejaVuSans-4d"/>
      <use x="610.839844" xlink:href="#DejaVuSans-44"/>
      <use x="687.841797" xlink:href="#DejaVuSans-7d"/>
     </g>
    </g>
   </g>
  </g>
 </g>
 <defs>
  <clipPath id="pbc43257e16">
   <rect height="427.695483" width="432.45" x="69.75" y="67.942258"/>
  </clipPath>
 </defs>
</svg>
