<?xml version="1.0" standalone="no"?><!DOCTYPE svg PUBLIC "-//W3C//DTD SVG 1.1//EN" "http://www.w3.org/Graphics/SVG/1.1/DTD/svg11.dtd"><svg width="1078" height="400"><defs></defs><rect x="2" y="2" width="1075" height="397" fill="none" style="stroke: rgb(255, 255, 255); fill-opacity: 1; stroke-opacity: 1; stroke-width: 2px;"></rect><text style="font-size:16px;font-family:'Arial', sans-serif" fill="#000000" class="vennchart-title" x="474.3666687011719" y="20.199999809265137">Gefundene Fehler</text><text style="font-size:16px;font-family:'Arial', sans-serif" fill="#000000" class="vennchart-subtitle" x="539" y="25"></text><g class="venn-area venn-circle venn-sets-0"><path style="fill-opacity: 0.25; fill: rgb(31, 119, 180); stroke-opacity: 0; stroke: red; stroke-width: 0px;" d="
M 491.3448187816976 167.1406717854765 
m -119.14067178547653 0 
a 119.14067178547653 119.14067178547653 0 1 0 238.28134357095306 0 
a 119.14067178547653 119.14067178547653 0 1 0 -238.28134357095306 0"></path><text style="fill: rgb(31, 119, 180);" text-anchor="middle" dy=".35em" x="447" y="147"><tspan x="447" y="147" dy="0.35em">DE</tspan></text></g><g class="venn-area venn-circle venn-sets-1"><path style="fill-opacity: 0.25; fill: rgb(255, 127, 14); stroke-opacity: 0; stroke: red; stroke-width: 0px;" d="
M 590.9115876179159 167.14345410317736 
m -114.88426538586303 0 
a 114.88426538586303 114.88426538586303 0 1 0 229.76853077172606 0 
a 114.88426538586303 114.88426538586303 0 1 0 -229.76853077172606 0"></path><text style="fill: rgb(255, 127, 14);" text-anchor="middle" dy=".35em" x="639" y="155"><tspan x="639" y="155" dy="0.35em">CS</tspan></text></g><g class="venn-area venn-circle venn-sets-2"><path style="fill-opacity: 0.25; fill: rgb(44, 160, 44); stroke-opacity: 0; stroke: red; stroke-width: 0px;" d="
M 544.2750380119596 296.5271405385182 
m -91.4728594614818 0 
a 91.4728594614818 91.4728594614818 0 1 0 182.9457189229636 0 
a 91.4728594614818 91.4728594614818 0 1 0 -182.9457189229636 0"></path><text style="fill: rgb(44, 160, 44);" text-anchor="middle" dy=".35em" x="540" y="329"><tspan x="540" y="329" dy="0.35em">PMD</tspan></text></g><g class="venn-area venn-intersection venn-sets-0_1"><path style="fill-opacity: 0; stroke-opacity: 0; stroke: red; stroke-width: 0px;" d="
M 546.12744405328 272.93936573699943 
A 114.88426538586303 114.88426538586303 0 0 1 546.133356895944 61.345039716858395 
A 119.14067178547653 119.14067178547653 0 0 1 546.12744405328 272.93936573699943"></path></g><g class="venn-area venn-intersection venn-sets-0_2"><path style="fill-opacity: 0; stroke-opacity: 0; stroke: red; stroke-width: 0px;" d="
M 454.24276273009866 280.3570006000015 
A 91.4728594614818 91.4728594614818 0 0 1 597.1599433603466 221.8915538231171 
A 119.14067178547653 119.14067178547653 0 0 1 454.24276273009866 280.3570006000015"></path></g><g class="venn-area venn-intersection venn-sets-1_2"><path style="fill-opacity: 0; stroke-opacity: 0; stroke: red; stroke-width: 0px;" d="
M 490.32893733596535 222.65493846009437 
A 91.4728594614818 91.4728594614818 0 0 1 632.9462393366862 274.0615652356281 
A 114.88426538586303 114.88426538586303 0 0 1 490.32893733596535 222.65493846009437"></path></g><g class="venn-area venn-intersection venn-sets-0_1_2"><path style="fill-opacity: 0; stroke-opacity: 0; stroke: red; stroke-width: 0px;" d="
M 490.32893733596535 222.65493846009437 
A 91.4728594614818 91.4728594614818 0 0 1 597.1599433603466 221.8915538231171 
A 119.14067178547653 119.14067178547653 0 0 1 546.12744405328 272.93936573699943 
A 114.88426538586303 114.88426538586303 0 0 1 490.32893733596535 222.65493846009437"></path></g></svg>