<?xml version="1.0" encoding="utf-8" standalone="no"?>
<!DOCTYPE svg PUBLIC "-//W3C//DTD SVG 1.1//EN"
  "http://www.w3.org/Graphics/SVG/1.1/DTD/svg11.dtd">
<svg height="558pt" version="1.1" viewBox="0 0 558 558" width="558pt" xmlns="http://www.w3.org/2000/svg" xmlns:xlink="http://www.w3.org/1999/xlink">
 <metadata>
  <rdf:RDF xmlns:cc="http://creativecommons.org/ns#" xmlns:dc="http://purl.org/dc/elements/1.1/" xmlns:rdf="http://www.w3.org/1999/02/22-rdf-syntax-ns#">
   <cc:Work>
    <dc:type rdf:resource="http://purl.org/dc/dcmitype/StillImage"/>
    <dc:date>2022-03-08T20:41:47.252858</dc:date>
    <dc:format>image/svg+xml</dc:format>
    <dc:creator>
     <cc:Agent>
      <dc:title>Matplotlib v3.4.2, https://matplotlib.org/</dc:title>
     </cc:Agent>
    </dc:creator>
   </cc:Work>
  </rdf:RDF>
 </metadata>
 <defs>
  <style type="text/css">*{stroke-linecap:butt;stroke-linejoin:round;}</style>
 </defs>
 <g id="figure_1">
  <g id="patch_1">
   <path d="M 0 558 
L 558 558 
L 558 0 
L 0 0 
z
" style="fill:#ffffff;"/>
  </g>
  <g id="axes_1">
   <g id="patch_2">
    <path clip-path="url(#p589080c30a)" d="M 369.286976 121.819813 
C 333.579039 100.751919 291.382961 93.418829 250.660725 101.204223 
C 209.93849 108.989617 173.423301 131.370954 148.005217 164.125096 
C 122.587132 196.879238 109.972168 237.807785 112.540645 279.187922 
C 115.109121 320.56806 132.688647 359.622426 161.962137 388.981847 
C 158.901596 382.291982 156.410585 375.355949 154.51559 368.24749 
C 152.620595 361.13903 151.328355 353.883425 150.652608 346.557815 
C 134.078741 315.779692 127.747964 280.502377 132.585549 245.88181 
C 137.423135 211.261243 153.181334 179.070455 177.557015 154.014276 
C 201.932696 128.958098 233.6775 112.319736 268.151781 106.530964 
C 302.626061 100.742193 338.064279 106.099472 369.286976 121.819813 
" style="fill:#ff0000;opacity:0.4;"/>
   </g>
   <g id="patch_3">
    <path clip-path="url(#p589080c30a)" d="M 369.286976 121.819813 
C 392.308196 135.402468 411.815006 154.211588 426.226761 176.72306 
C 440.638517 199.234533 449.55515 224.823442 452.254141 251.416309 
C 454.953131 278.009175 451.359557 304.867783 441.764606 329.81577 
C 432.169654 354.763756 416.839681 377.108566 397.016881 395.039591 
C 396.597523 395.84393 396.169815 396.643887 395.733824 397.439333 
C 395.297833 398.234779 394.853584 399.02567 394.401149 399.811879 
C 416.695109 382.982165 434.335234 360.743882 445.649584 335.204787 
C 456.963934 309.665692 461.583385 281.658979 459.070104 253.839142 
C 456.556823 226.019306 446.992803 199.293947 431.284529 176.196111 
C 415.576254 153.098276 394.236195 134.381515 369.286976 121.819813 
" style="fill:#008000;opacity:0.4;"/>
   </g>
   <g id="patch_4">
    <path clip-path="url(#p589080c30a)" d="M 369.286976 121.819813 
C 338.064279 106.099472 302.626061 100.742193 268.151781 106.530964 
C 233.6775 112.319736 201.932696 128.958098 177.557015 154.014276 
C 153.181334 179.070455 137.423135 211.261243 132.585549 245.88181 
C 127.747964 280.502377 134.078741 315.779692 150.652608 346.557815 
C 148.78394 326.300022 151.664332 305.882801 159.064331 286.932601 
C 166.464331 267.982401 178.182081 251.016143 193.284137 237.385371 
C 208.386194 223.754598 226.460606 213.83113 246.067553 208.405477 
C 265.674499 202.979823 286.279145 202.199984 306.24011 206.128082 
C 326.201075 210.05618 344.973866 218.585065 361.063031 231.035321 
C 377.152195 243.485576 390.118855 259.517585 398.930076 277.854228 
C 407.741298 296.19087 412.15673 316.331961 411.824637 336.673047 
C 411.492543 357.014133 406.421983 377.000353 397.016881 395.039591 
C 416.839681 377.108566 432.169654 354.763756 441.764606 329.81577 
C 451.359557 304.867783 454.953131 278.009175 452.254141 251.416309 
C 449.55515 224.823442 440.638517 199.234533 426.226761 176.72306 
C 411.815006 154.211588 392.308196 135.402468 369.286976 121.819813 
" style="fill:#b25a00;opacity:0.4;"/>
   </g>
   <g id="patch_5">
    <path clip-path="url(#p589080c30a)" d="M 161.962137 388.981847 
C 171.961599 410.839105 187.79192 429.524888 207.708795 442.980259 
C 227.625671 456.435631 250.869681 464.147542 274.879626 465.266238 
C 298.889572 466.384933 322.749964 460.867758 343.831688 449.322634 
C 364.913412 437.777511 382.41263 420.644651 394.401149 399.811879 
C 390.460736 402.786498 386.388298 405.582068 382.196225 408.190083 
C 378.004153 410.798099 373.696701 413.215913 369.286976 415.436169 
C 336.70148 434.661804 298.62437 442.501912 261.094286 437.713133 
C 223.564202 432.924353 188.67584 415.773966 161.962137 388.981847 
" style="fill:#0000ff;opacity:0.4;"/>
   </g>
   <g id="patch_6">
    <path clip-path="url(#p589080c30a)" d="M 161.962137 388.981847 
C 188.67584 415.773966 223.564202 432.924353 261.094286 437.713133 
C 298.62437 442.501912 336.70148 434.661804 369.286976 415.436169 
C 331.064481 434.680843 286.797831 438.257373 245.981538 425.398648 
C 205.165245 412.539924 170.942161 384.236066 150.652608 346.557815 
C 151.328355 353.883425 152.620595 361.13903 154.51559 368.24749 
C 156.410585 375.355949 158.901596 382.291982 161.962137 388.981847 
" style="fill:#b200b2;opacity:0.4;"/>
   </g>
   <g id="patch_7">
    <path clip-path="url(#p589080c30a)" d="M 397.016881 395.039591 
C 392.753934 398.895707 388.298657 402.533717 383.66813 405.939676 
C 379.037603 409.345634 374.237751 412.515183 369.286976 415.436169 
C 373.696701 413.215913 378.004153 410.798099 382.196225 408.190083 
C 386.388298 405.582068 390.460736 402.786498 394.401149 399.811879 
C 394.853584 399.02567 395.297833 398.234779 395.733824 397.439333 
C 396.169815 396.643887 396.597523 395.84393 397.016881 395.039591 
" style="fill:#005ab2;opacity:0.4;"/>
   </g>
   <g id="patch_8">
    <path clip-path="url(#p589080c30a)" d="M 150.652608 346.557815 
C 170.942161 384.236066 205.165245 412.539924 245.981538 425.398648 
C 286.797831 438.257373 331.064481 434.680843 369.286976 415.436169 
C 374.237751 412.515183 379.037603 409.345634 383.66813 405.939676 
C 388.298657 402.533717 392.753934 398.895707 397.016881 395.039591 
C 406.421983 377.000353 411.492543 357.014133 411.824637 336.673047 
C 412.15673 316.331961 407.741298 296.19087 398.930076 277.854228 
C 390.118855 259.517585 377.152195 243.485576 361.063031 231.035321 
C 344.973866 218.585065 326.201075 210.05618 306.24011 206.128082 
C 286.279145 202.199984 265.674499 202.979823 246.067553 208.405477 
C 226.460606 213.83113 208.386194 223.754598 193.284137 237.385371 
C 178.182081 251.016143 166.464331 267.982401 159.064331 286.932601 
C 151.664332 305.882801 148.78394 326.300022 150.652608 346.557815 
" style="opacity:0.4;stroke:#000000;stroke-linejoin:miter;"/>
   </g>
   <g id="patch_9">
    <path clip-path="url(#p589080c30a)" d="M 282.669283 439.084043 
C 327.874757 439.084043 371.234817 421.123718 403.199914 389.158621 
C 435.165011 357.193524 453.125336 313.833464 453.125336 268.627991 
C 453.125336 223.422517 435.165011 180.062457 403.199914 148.09736 
C 371.234817 116.132263 327.874757 98.171938 282.669283 98.171938 
C 237.46381 98.171938 194.10375 116.132263 162.138653 148.09736 
C 130.173556 180.062457 112.213231 223.422517 112.213231 268.627991 
C 112.213231 313.833464 130.173556 357.193524 162.138653 389.158621 
C 194.10375 421.123718 237.46381 439.084043 282.669283 439.084043 
z
" style="fill:none;stroke:#000000;stroke-linejoin:miter;"/>
   </g>
   <g id="patch_10">
    <path clip-path="url(#p589080c30a)" d="M 295.370411 432.994349 
C 338.960878 432.994349 380.771862 415.675673 411.594977 384.852557 
C 442.418093 354.029442 459.736769 312.218459 459.736769 268.627991 
C 459.736769 225.037523 442.418093 183.22654 411.594977 152.403424 
C 380.771862 121.580309 338.960878 104.261632 295.370411 104.261632 
C 251.779943 104.261632 209.968959 121.580309 179.145844 152.403424 
C 148.322729 183.22654 131.004052 225.037523 131.004052 268.627991 
C 131.004052 312.218459 148.322729 354.029442 179.145844 384.852557 
C 209.968959 415.675673 251.779943 432.994349 295.370411 432.994349 
z
" style="fill:none;stroke:#000000;stroke-linejoin:miter;"/>
   </g>
   <g id="patch_11">
    <path clip-path="url(#p589080c30a)" d="M 280.970708 465.408062 
C 315.678201 465.408062 348.968836 451.618629 373.510739 427.076726 
C 398.052642 402.534823 411.842075 369.244187 411.842075 334.536695 
C 411.842075 299.829203 398.052642 266.538567 373.510739 241.996664 
C 348.968836 217.454761 315.678201 203.665329 280.970708 203.665329 
C 246.263216 203.665329 212.972581 217.454761 188.430678 241.996664 
C 163.888775 266.538567 150.099342 299.829203 150.099342 334.536695 
C 150.099342 369.244187 163.888775 402.534823 188.430678 427.076726 
C 212.972581 451.618629 246.263216 465.408062 280.970708 465.408062 
z
" style="fill:none;stroke:#000000;stroke-linejoin:miter;"/>
   </g>
   <g id="text_1">
    <!-- DE -->
    <g transform="translate(180.618757 98.171938)scale(0.12 -0.12)">
     <defs>
      <path d="M 1259 4147 
L 1259 519 
L 2022 519 
Q 2988 519 3436 956 
Q 3884 1394 3884 2338 
Q 3884 3275 3436 3711 
Q 2988 4147 2022 4147 
L 1259 4147 
z
M 628 4666 
L 1925 4666 
Q 3281 4666 3915 4102 
Q 4550 3538 4550 2338 
Q 4550 1131 3912 565 
Q 3275 0 1925 0 
L 628 0 
L 628 4666 
z
" id="DejaVuSans-44" transform="scale(0.015625)"/>
      <path d="M 628 4666 
L 3578 4666 
L 3578 4134 
L 1259 4134 
L 1259 2753 
L 3481 2753 
L 3481 2222 
L 1259 2222 
L 1259 531 
L 3634 531 
L 3634 0 
L 628 0 
L 628 4666 
z
" id="DejaVuSans-45" transform="scale(0.015625)"/>
     </defs>
     <use xlink:href="#DejaVuSans-44"/>
     <use x="77.001953" xlink:href="#DejaVuSans-45"/>
    </g>
   </g>
   <g id="text_2">
    <!-- CS -->
    <g transform="translate(377.55359 104.261632)scale(0.12 -0.12)">
     <defs>
      <path d="M 4122 4306 
L 4122 3641 
Q 3803 3938 3442 4084 
Q 3081 4231 2675 4231 
Q 1875 4231 1450 3742 
Q 1025 3253 1025 2328 
Q 1025 1406 1450 917 
Q 1875 428 2675 428 
Q 3081 428 3442 575 
Q 3803 722 4122 1019 
L 4122 359 
Q 3791 134 3420 21 
Q 3050 -91 2638 -91 
Q 1578 -91 968 557 
Q 359 1206 359 2328 
Q 359 3453 968 4101 
Q 1578 4750 2638 4750 
Q 3056 4750 3426 4639 
Q 3797 4528 4122 4306 
z
" id="DejaVuSans-43" transform="scale(0.015625)"/>
      <path d="M 3425 4513 
L 3425 3897 
Q 3066 4069 2747 4153 
Q 2428 4238 2131 4238 
Q 1616 4238 1336 4038 
Q 1056 3838 1056 3469 
Q 1056 3159 1242 3001 
Q 1428 2844 1947 2747 
L 2328 2669 
Q 3034 2534 3370 2195 
Q 3706 1856 3706 1288 
Q 3706 609 3251 259 
Q 2797 -91 1919 -91 
Q 1588 -91 1214 -16 
Q 841 59 441 206 
L 441 856 
Q 825 641 1194 531 
Q 1563 422 1919 422 
Q 2459 422 2753 634 
Q 3047 847 3047 1241 
Q 3047 1584 2836 1778 
Q 2625 1972 2144 2069 
L 1759 2144 
Q 1053 2284 737 2584 
Q 422 2884 422 3419 
Q 422 4038 858 4394 
Q 1294 4750 2059 4750 
Q 2388 4750 2728 4690 
Q 3069 4631 3425 4513 
z
" id="DejaVuSans-53" transform="scale(0.015625)"/>
     </defs>
     <use xlink:href="#DejaVuSans-43"/>
     <use x="69.824219" xlink:href="#DejaVuSans-53"/>
    </g>
   </g>
   <g id="text_3">
    <!-- PMD -->
    <g transform="translate(267.556021 487.613323)scale(0.12 -0.12)">
     <defs>
      <path d="M 1259 4147 
L 1259 2394 
L 2053 2394 
Q 2494 2394 2734 2622 
Q 2975 2850 2975 3272 
Q 2975 3691 2734 3919 
Q 2494 4147 2053 4147 
L 1259 4147 
z
M 628 4666 
L 2053 4666 
Q 2838 4666 3239 4311 
Q 3641 3956 3641 3272 
Q 3641 2581 3239 2228 
Q 2838 1875 2053 1875 
L 1259 1875 
L 1259 0 
L 628 0 
L 628 4666 
z
" id="DejaVuSans-50" transform="scale(0.015625)"/>
      <path d="M 628 4666 
L 1569 4666 
L 2759 1491 
L 3956 4666 
L 4897 4666 
L 4897 0 
L 4281 0 
L 4281 4097 
L 3078 897 
L 2444 897 
L 1241 4097 
L 1241 0 
L 628 0 
L 628 4666 
z
" id="DejaVuSans-4d" transform="scale(0.015625)"/>
     </defs>
     <use xlink:href="#DejaVuSans-50"/>
     <use x="60.302734" xlink:href="#DejaVuSans-4d"/>
     <use x="146.582031" xlink:href="#DejaVuSans-44"/>
    </g>
   </g>
   <g id="legend_1">
    <g id="patch_12">
     <path d="M 21.50918 496.62 
L 128.654493 496.62 
Q 130.654493 496.62 130.654493 494.62 
L 130.654493 378.195 
Q 130.654493 376.195 128.654493 376.195 
L 21.50918 376.195 
Q 19.50918 376.195 19.50918 378.195 
L 19.50918 494.62 
Q 19.50918 496.62 21.50918 496.62 
z
" style="fill:#ffffff;opacity:0.8;stroke:#cccccc;stroke-linejoin:miter;"/>
    </g>
    <g id="text_4">
     <!-- Legende -->
     <g transform="translate(53.636524 387.793438)scale(0.1 -0.1)">
      <defs>
       <path d="M 628 4666 
L 1259 4666 
L 1259 531 
L 3531 531 
L 3531 0 
L 628 0 
L 628 4666 
z
" id="DejaVuSans-4c" transform="scale(0.015625)"/>
       <path d="M 3597 1894 
L 3597 1613 
L 953 1613 
Q 991 1019 1311 708 
Q 1631 397 2203 397 
Q 2534 397 2845 478 
Q 3156 559 3463 722 
L 3463 178 
Q 3153 47 2828 -22 
Q 2503 -91 2169 -91 
Q 1331 -91 842 396 
Q 353 884 353 1716 
Q 353 2575 817 3079 
Q 1281 3584 2069 3584 
Q 2775 3584 3186 3129 
Q 3597 2675 3597 1894 
z
M 3022 2063 
Q 3016 2534 2758 2815 
Q 2500 3097 2075 3097 
Q 1594 3097 1305 2825 
Q 1016 2553 972 2059 
L 3022 2063 
z
" id="DejaVuSans-65" transform="scale(0.015625)"/>
       <path d="M 2906 1791 
Q 2906 2416 2648 2759 
Q 2391 3103 1925 3103 
Q 1463 3103 1205 2759 
Q 947 2416 947 1791 
Q 947 1169 1205 825 
Q 1463 481 1925 481 
Q 2391 481 2648 825 
Q 2906 1169 2906 1791 
z
M 3481 434 
Q 3481 -459 3084 -895 
Q 2688 -1331 1869 -1331 
Q 1566 -1331 1297 -1286 
Q 1028 -1241 775 -1147 
L 775 -588 
Q 1028 -725 1275 -790 
Q 1522 -856 1778 -856 
Q 2344 -856 2625 -561 
Q 2906 -266 2906 331 
L 2906 616 
Q 2728 306 2450 153 
Q 2172 0 1784 0 
Q 1141 0 747 490 
Q 353 981 353 1791 
Q 353 2603 747 3093 
Q 1141 3584 1784 3584 
Q 2172 3584 2450 3431 
Q 2728 3278 2906 2969 
L 2906 3500 
L 3481 3500 
L 3481 434 
z
" id="DejaVuSans-67" transform="scale(0.015625)"/>
       <path d="M 3513 2113 
L 3513 0 
L 2938 0 
L 2938 2094 
Q 2938 2591 2744 2837 
Q 2550 3084 2163 3084 
Q 1697 3084 1428 2787 
Q 1159 2491 1159 1978 
L 1159 0 
L 581 0 
L 581 3500 
L 1159 3500 
L 1159 2956 
Q 1366 3272 1645 3428 
Q 1925 3584 2291 3584 
Q 2894 3584 3203 3211 
Q 3513 2838 3513 2113 
z
" id="DejaVuSans-6e" transform="scale(0.015625)"/>
       <path d="M 2906 2969 
L 2906 4863 
L 3481 4863 
L 3481 0 
L 2906 0 
L 2906 525 
Q 2725 213 2448 61 
Q 2172 -91 1784 -91 
Q 1150 -91 751 415 
Q 353 922 353 1747 
Q 353 2572 751 3078 
Q 1150 3584 1784 3584 
Q 2172 3584 2448 3432 
Q 2725 3281 2906 2969 
z
M 947 1747 
Q 947 1113 1208 752 
Q 1469 391 1925 391 
Q 2381 391 2643 752 
Q 2906 1113 2906 1747 
Q 2906 2381 2643 2742 
Q 2381 3103 1925 3103 
Q 1469 3103 1208 2742 
Q 947 2381 947 1747 
z
" id="DejaVuSans-64" transform="scale(0.015625)"/>
      </defs>
      <use xlink:href="#DejaVuSans-4c"/>
      <use x="53.962891" xlink:href="#DejaVuSans-65"/>
      <use x="115.486328" xlink:href="#DejaVuSans-67"/>
      <use x="178.962891" xlink:href="#DejaVuSans-65"/>
      <use x="240.486328" xlink:href="#DejaVuSans-6e"/>
      <use x="303.865234" xlink:href="#DejaVuSans-64"/>
      <use x="367.341797" xlink:href="#DejaVuSans-65"/>
     </g>
    </g>
    <g id="patch_13">
     <path d="M 23.50918 402.471563 
L 43.50918 402.471563 
L 43.50918 395.471563 
L 23.50918 395.471563 
z
" style="fill:#ff0000;opacity:0.4;"/>
    </g>
    <g id="text_5">
     <!-- {DE} -->
     <g transform="translate(51.50918 402.471563)scale(0.1 -0.1)">
      <defs>
       <path d="M 3272 -594 
L 3272 -1044 
L 3078 -1044 
Q 2300 -1044 2036 -812 
Q 1772 -581 1772 109 
L 1772 856 
Q 1772 1328 1603 1509 
Q 1434 1691 991 1691 
L 800 1691 
L 800 2138 
L 991 2138 
Q 1438 2138 1605 2317 
Q 1772 2497 1772 2963 
L 1772 3713 
Q 1772 4403 2036 4633 
Q 2300 4863 3078 4863 
L 3272 4863 
L 3272 4416 
L 3059 4416 
Q 2619 4416 2484 4278 
Q 2350 4141 2350 3700 
L 2350 2925 
Q 2350 2434 2208 2212 
Q 2066 1991 1722 1913 
Q 2069 1828 2209 1606 
Q 2350 1384 2350 897 
L 2350 122 
Q 2350 -319 2484 -456 
Q 2619 -594 3059 -594 
L 3272 -594 
z
" id="DejaVuSans-7b" transform="scale(0.015625)"/>
       <path d="M 800 -594 
L 1019 -594 
Q 1456 -594 1589 -459 
Q 1722 -325 1722 122 
L 1722 897 
Q 1722 1384 1862 1606 
Q 2003 1828 2350 1913 
Q 2003 1991 1862 2212 
Q 1722 2434 1722 2925 
L 1722 3700 
Q 1722 4144 1589 4280 
Q 1456 4416 1019 4416 
L 800 4416 
L 800 4863 
L 997 4863 
Q 1775 4863 2036 4633 
Q 2297 4403 2297 3713 
L 2297 2963 
Q 2297 2497 2465 2317 
Q 2634 2138 3078 2138 
L 3272 2138 
L 3272 1691 
L 3078 1691 
Q 2634 1691 2465 1509 
Q 2297 1328 2297 856 
L 2297 109 
Q 2297 -581 2036 -812 
Q 1775 -1044 997 -1044 
L 800 -1044 
L 800 -594 
z
" id="DejaVuSans-7d" transform="scale(0.015625)"/>
      </defs>
      <use xlink:href="#DejaVuSans-7b"/>
      <use x="63.623047" xlink:href="#DejaVuSans-44"/>
      <use x="140.625" xlink:href="#DejaVuSans-45"/>
      <use x="203.808594" xlink:href="#DejaVuSans-7d"/>
     </g>
    </g>
    <g id="patch_14">
     <path d="M 23.50918 417.149688 
L 43.50918 417.149688 
L 43.50918 410.149688 
L 23.50918 410.149688 
z
" style="fill:#008000;opacity:0.4;"/>
    </g>
    <g id="text_6">
     <!-- {CS} -->
     <g transform="translate(51.50918 417.149688)scale(0.1 -0.1)">
      <use xlink:href="#DejaVuSans-7b"/>
      <use x="63.623047" xlink:href="#DejaVuSans-43"/>
      <use x="133.447266" xlink:href="#DejaVuSans-53"/>
      <use x="196.923828" xlink:href="#DejaVuSans-7d"/>
     </g>
    </g>
    <g id="patch_15">
     <path d="M 23.50918 431.827813 
L 43.50918 431.827813 
L 43.50918 424.827813 
L 23.50918 424.827813 
z
" style="fill:#b25a00;opacity:0.4;"/>
    </g>
    <g id="text_7">
     <!-- {DE, CS} -->
     <g transform="translate(51.50918 431.827813)scale(0.1 -0.1)">
      <defs>
       <path d="M 750 794 
L 1409 794 
L 1409 256 
L 897 -744 
L 494 -744 
L 750 256 
L 750 794 
z
" id="DejaVuSans-2c" transform="scale(0.015625)"/>
       <path id="DejaVuSans-20" transform="scale(0.015625)"/>
      </defs>
      <use xlink:href="#DejaVuSans-7b"/>
      <use x="63.623047" xlink:href="#DejaVuSans-44"/>
      <use x="140.625" xlink:href="#DejaVuSans-45"/>
      <use x="203.808594" xlink:href="#DejaVuSans-2c"/>
      <use x="235.595703" xlink:href="#DejaVuSans-20"/>
      <use x="267.382812" xlink:href="#DejaVuSans-43"/>
      <use x="337.207031" xlink:href="#DejaVuSans-53"/>
      <use x="400.683594" xlink:href="#DejaVuSans-7d"/>
     </g>
    </g>
    <g id="patch_16">
     <path d="M 23.50918 446.505938 
L 43.50918 446.505938 
L 43.50918 439.505938 
L 23.50918 439.505938 
z
" style="fill:#0000ff;opacity:0.4;"/>
    </g>
    <g id="text_8">
     <!-- {PMD} -->
     <g transform="translate(51.50918 446.505938)scale(0.1 -0.1)">
      <use xlink:href="#DejaVuSans-7b"/>
      <use x="63.623047" xlink:href="#DejaVuSans-50"/>
      <use x="123.925781" xlink:href="#DejaVuSans-4d"/>
      <use x="210.205078" xlink:href="#DejaVuSans-44"/>
      <use x="287.207031" xlink:href="#DejaVuSans-7d"/>
     </g>
    </g>
    <g id="patch_17">
     <path d="M 23.50918 461.184063 
L 43.50918 461.184063 
L 43.50918 454.184063 
L 23.50918 454.184063 
z
" style="fill:#b200b2;opacity:0.4;"/>
    </g>
    <g id="text_9">
     <!-- {DE, PMD} -->
     <g transform="translate(51.50918 461.184063)scale(0.1 -0.1)">
      <use xlink:href="#DejaVuSans-7b"/>
      <use x="63.623047" xlink:href="#DejaVuSans-44"/>
      <use x="140.625" xlink:href="#DejaVuSans-45"/>
      <use x="203.808594" xlink:href="#DejaVuSans-2c"/>
      <use x="235.595703" xlink:href="#DejaVuSans-20"/>
      <use x="267.382812" xlink:href="#DejaVuSans-50"/>
      <use x="327.685547" xlink:href="#DejaVuSans-4d"/>
      <use x="413.964844" xlink:href="#DejaVuSans-44"/>
      <use x="490.966797" xlink:href="#DejaVuSans-7d"/>
     </g>
    </g>
    <g id="patch_18">
     <path d="M 23.50918 475.862188 
L 43.50918 475.862188 
L 43.50918 468.862188 
L 23.50918 468.862188 
z
" style="fill:#005ab2;opacity:0.4;"/>
    </g>
    <g id="text_10">
     <!-- {CS, PMD} -->
     <g transform="translate(51.50918 475.862188)scale(0.1 -0.1)">
      <use xlink:href="#DejaVuSans-7b"/>
      <use x="63.623047" xlink:href="#DejaVuSans-43"/>
      <use x="133.447266" xlink:href="#DejaVuSans-53"/>
      <use x="196.923828" xlink:href="#DejaVuSans-2c"/>
      <use x="228.710938" xlink:href="#DejaVuSans-20"/>
      <use x="260.498047" xlink:href="#DejaVuSans-50"/>
      <use x="320.800781" xlink:href="#DejaVuSans-4d"/>
      <use x="407.080078" xlink:href="#DejaVuSans-44"/>
      <use x="484.082031" xlink:href="#DejaVuSans-7d"/>
     </g>
    </g>
    <g id="patch_19">
     <path d="M 23.50918 490.540313 
L 43.50918 490.540313 
L 43.50918 483.540313 
L 23.50918 483.540313 
z
" style="opacity:0.4;stroke:#000000;stroke-linejoin:miter;"/>
    </g>
    <g id="text_11">
     <!-- {DE, CS, PMD} -->
     <g transform="translate(51.50918 490.540313)scale(0.1 -0.1)">
      <use xlink:href="#DejaVuSans-7b"/>
      <use x="63.623047" xlink:href="#DejaVuSans-44"/>
      <use x="140.625" xlink:href="#DejaVuSans-45"/>
      <use x="203.808594" xlink:href="#DejaVuSans-2c"/>
      <use x="235.595703" xlink:href="#DejaVuSans-20"/>
      <use x="267.382812" xlink:href="#DejaVuSans-43"/>
      <use x="337.207031" xlink:href="#DejaVuSans-53"/>
      <use x="400.683594" xlink:href="#DejaVuSans-2c"/>
      <use x="432.470703" xlink:href="#DejaVuSans-20"/>
      <use x="464.257812" xlink:href="#DejaVuSans-50"/>
      <use x="524.560547" xlink:href="#DejaVuSans-4d"/>
      <use x="610.839844" xlink:href="#DejaVuSans-44"/>
      <use x="687.841797" xlink:href="#DejaVuSans-7d"/>
     </g>
    </g>
   </g>
  </g>
 </g>
 <defs>
  <clipPath id="p589080c30a">
   <rect height="429.66" width="409.947415" x="81.001293" y="66.96"/>
  </clipPath>
 </defs>
</svg>
